<svg width="50" height="50" viewBox="0 0 50 50" fill="none" xmlns="http://www.w3.org/2000/svg">
<g clip-path="url(#clip0_205_785)">
<path d="M25 50C38.8071 50 50 38.8071 50 25C50 11.1929 38.8071 0 25 0C11.1929 0 0 11.1929 0 25C0 38.8071 11.1929 50 25 50Z" fill="#F0F0F0"/>
<path d="M50 24.9998C50 15.0883 44.2319 6.52422 35.8695 2.48047V47.519C44.2319 43.4754 50 34.9113 50 24.9998Z" fill="#D80027"/>
<path d="M0 24.9998C0 34.9113 5.76807 43.4754 14.1305 47.5191V2.48047C5.76807 6.52422 0 15.0883 0 24.9998Z" fill="#D80027"/>
<path d="M29.3478 28.2602L33.6956 26.0862L31.5218 24.9993V22.8254L27.1739 24.9993L29.3478 20.6515H27.1739L25 17.3906L22.8261 20.6515H20.6521L22.8261 24.9993L18.4782 22.8254V24.9993L16.3044 26.0862L20.6521 28.2602L19.5652 30.4341H23.9131V33.6949H26.0869V30.4341H30.4348L29.3478 28.2602Z" fill="#D80027"/>
</g>
<defs>
<clipPath id="clip0_205_785">
<rect width="50" height="50" fill="white"/>
</clipPath>
</defs>
</svg>
