<svg width="50" height="50" viewBox="0 0 50 50" fill="none" xmlns="http://www.w3.org/2000/svg">
<g clip-path="url(#clip0_205_499)">
<path d="M50 25C50 38.807 38.807 50 25 50C11.193 50 0 38.807 0 25C0 25.0059 25 0.00283203 25 0C38.807 0 50 11.193 50 25Z" fill="#0052B4"/>
<path d="M25 0C24.9986 0 24.9972 0.001 24.9958 0.001L25 0Z" fill="#F0F0F0"/>
<path d="M24.9331 25H25C25 24.9773 25 24.9557 25 24.9331C24.9777 24.9555 24.9555 24.9777 24.9331 25Z" fill="#F0F0F0"/>
<path d="M25 13.0435C25 8.64453 25 5.76201 25 0H24.9958C11.1906 0.00224609 0 11.1941 0 24.9999H13.0435V17.655L20.3884 24.9999H24.9332C24.9556 24.9776 24.9778 24.9554 25.0001 24.933C25.0001 23.2487 25.0001 21.7459 25.0001 20.3885L17.6551 13.0435H25Z" fill="#F0F0F0"/>
<path d="M12.648 3.26074C8.73792 5.48721 5.48733 8.73779 3.26086 12.6479V24.9999H9.78264V9.78262V9.78252H25C25 7.72559 25 5.76602 25 3.26074H12.648Z" fill="#D80027"/>
<path d="M25 21.9255L16.1179 13.0435H13.0436C13.0436 13.0434 13.0436 13.0435 13.0436 13.0435L24.9999 24.9998H25C25 24.9998 25 22.8802 25 21.9255Z" fill="#D80027"/>
<path d="M15.0776 29.3481L16.4497 32.2171L19.548 31.501L18.1605 34.3625L20.6521 36.3384L17.5499 37.0376L17.5586 40.2177L15.0776 38.2281L12.5968 40.2177L12.6055 37.0376L9.50311 36.3384L11.9948 34.3625L10.6071 31.501L13.7057 32.2171L15.0776 29.3481Z" fill="#F0F0F0"/>
<path d="M37.4301 34.7827L38.1161 36.2172L39.6653 35.8591L38.9715 37.2898L40.2174 38.2778L38.6662 38.6274L38.6705 40.2175L37.4301 39.2227L36.1897 40.2175L36.194 38.6274L34.6429 38.2778L35.8887 37.2898L35.1949 35.8591L36.7441 36.2172L37.4301 34.7827Z" fill="#F0F0F0"/>
<path d="M31.0481 19.5654L31.734 21L33.2833 20.6418L32.5895 22.0726L33.8353 23.0605L32.2842 23.4102L32.2884 25.0002L31.0481 24.0054L29.8077 25.0002L29.8119 23.4102L28.2608 23.0605L29.5066 22.0726L28.8129 20.6418L30.3621 21L31.0481 19.5654Z" fill="#F0F0F0"/>
<path d="M37.4301 10.8696L38.1161 12.3042L39.6653 11.9461L38.9716 13.3769L40.2173 14.3647L38.6662 14.7145L38.6705 16.3045L37.4301 15.3097L36.1897 16.3045L36.194 14.7145L34.6429 14.3647L35.8886 13.3769L35.1949 11.9461L36.7441 12.3042L37.4301 10.8696Z" fill="#F0F0F0"/>
<path d="M43.0047 17.3916L43.6906 18.8262L45.2398 18.468L44.5461 19.8987L45.7919 20.8867L44.2407 21.2364L44.245 22.8264L43.0047 21.8316L41.7642 22.8264L41.7684 21.2364L40.2173 20.8867L41.4631 19.8987L40.7694 18.468L42.3185 18.8262L43.0047 17.3916Z" fill="#F0F0F0"/>
<path d="M39.0186 25L39.5581 26.6607H41.3044L39.8916 27.6872L40.4314 29.3479L39.0186 28.3215L37.6059 29.3479L38.1454 27.6872L36.7327 26.6607H38.4789L39.0186 25Z" fill="#F0F0F0"/>
</g>
<defs>
<clipPath id="clip0_205_499">
<rect width="50" height="50" fill="white"/>
</clipPath>
</defs>
</svg>
