<svg width="50" height="50" viewBox="0 0 50 50" fill="none" xmlns="http://www.w3.org/2000/svg">
<g clip-path="url(#clip0_205_592)">
<path d="M33.6956 1.55498C30.9873 0.550098 28.058 0 25 0C21.942 0 19.0127 0.550098 16.3044 1.55498L14.1305 25L16.3044 48.445C19.0127 49.45 21.942 50 25 50C28.058 50 30.9873 49.45 33.6956 48.445L35.8695 25L33.6956 1.55498Z" fill="#FFDA44"/>
<path d="M50 24.9996C50 14.2506 43.2156 5.08691 33.6956 1.55469V48.4448C43.2156 44.9123 50 35.7488 50 24.9996Z" fill="#D80027"/>
<path d="M0 24.9996C0 35.7488 6.78437 44.9123 16.3044 48.4447V1.55469C6.78437 5.08691 0 14.2506 0 24.9996Z" fill="black"/>
</g>
<defs>
<clipPath id="clip0_205_592">
<rect width="50" height="50" fill="white"/>
</clipPath>
</defs>
</svg>
