<svg width="51" height="50" viewBox="0 0 51 50" fill="none" xmlns="http://www.w3.org/2000/svg">
<g clip-path="url(#clip0_205_1705)">
<path d="M25.9883 50C39.7954 50 50.9883 38.8071 50.9883 25C50.9883 11.1929 39.7954 0 25.9883 0C12.1812 0 0.988281 11.1929 0.988281 25C0.988281 38.8071 12.1812 50 25.9883 50Z" fill="#F0F0F0"/>
<path d="M25.9885 0C15.2394 0 6.07578 6.78437 2.54346 16.3044H49.4336C45.9012 6.78437 36.7376 0 25.9885 0Z" fill="#A2001D"/>
<path d="M25.9885 49.9997C36.7376 49.9997 45.9012 43.2153 49.4335 33.6953H2.54346C6.07578 43.2153 15.2394 49.9997 25.9885 49.9997Z" fill="#0052B4"/>
</g>
<defs>
<clipPath id="clip0_205_1705">
<rect width="50" height="50" fill="white" transform="translate(0.988281)"/>
</clipPath>
</defs>
</svg>
