<svg width="50" height="50" viewBox="0 0 50 50" fill="none" xmlns="http://www.w3.org/2000/svg">
<g clip-path="url(#clip0_205_1185)">
<path d="M1.55518 33.6963C5.0875 43.2162 14.2511 50.0007 25.0002 50.0007C35.7493 50.0007 44.9129 43.2162 48.4452 33.6963L25.0002 31.5225L1.55518 33.6963Z" fill="#FFDA44"/>
<path d="M25.0002 0.000976562C14.2511 0.000976562 5.0875 6.78535 1.55518 16.3054L25.0002 18.4792L48.4452 16.3053C44.9129 6.78535 35.7493 0.000976562 25.0002 0.000976562Z" fill="black"/>
<path d="M1.55498 16.3057C0.550098 19.014 0 21.9433 0 25.0013C0 28.0593 0.550098 30.9886 1.55498 33.6969H48.4451C49.45 30.9886 50 28.0593 50 25.0013C50 21.9433 49.45 19.014 48.445 16.3057H1.55498Z" fill="#D80027"/>
</g>
<defs>
<clipPath id="clip0_205_1185">
<rect width="50" height="50" fill="white" transform="translate(0 0.000976562)"/>
</clipPath>
</defs>
</svg>
