<svg width="50" height="50" viewBox="0 0 50 50" fill="none" xmlns="http://www.w3.org/2000/svg">
<g clip-path="url(#clip0_205_999)">
<path d="M25 50C38.8071 50 50 38.8071 50 25C50 11.1929 38.8071 0 25 0C11.1929 0 0 11.1929 0 25C0 38.8071 11.1929 50 25 50Z" fill="#F0F0F0"/>
<path d="M19.5653 21.7392H49.7884C48.1904 9.47285 37.7019 0 25 0C23.1333 0 21.3152 0.206348 19.5652 0.594238V21.7392H19.5653Z" fill="#D80027"/>
<path d="M13.0434 21.7394V3.04004C6.17889 6.78555 1.26464 13.6558 0.211609 21.7395H13.0434V21.7394Z" fill="#D80027"/>
<path d="M13.0433 28.2607H0.211609C1.26464 36.3444 6.17889 43.2147 13.0434 46.9601L13.0433 28.2607Z" fill="#D80027"/>
<path d="M19.5652 28.2608V49.4057C21.3152 49.7936 23.1333 49.9999 25 49.9999C37.7019 49.9999 48.1904 40.5271 49.7884 28.2607H19.5652V28.2608Z" fill="#D80027"/>
</g>
<defs>
<clipPath id="clip0_205_999">
<rect width="50" height="50" fill="white"/>
</clipPath>
</defs>
</svg>
