<svg width="50" height="50" viewBox="0 0 50 50" fill="none" xmlns="http://www.w3.org/2000/svg">
<g clip-path="url(#clip0_205_1333)">
<path d="M25 50.001C38.8071 50.001 50 38.8081 50 25.001C50 11.1939 38.8071 0.000976562 25 0.000976562C11.1929 0.000976562 0 11.1939 0 25.001C0 38.8081 11.1929 50.001 25 50.001Z" fill="#F0F0F0"/>
<path d="M33.1198 18.4796H29.8489C29.876 18.8391 29.8913 19.2018 29.8913 19.5665C29.8913 21.9849 29.2868 24.3289 28.233 25.9975C27.9079 26.5121 27.3616 27.2389 26.6304 27.7291V18.4795H23.3695V27.7291C22.6384 27.2389 22.092 26.5122 21.7669 25.9975C20.713 24.3289 20.1086 21.9849 20.1086 19.5665C20.1086 19.2018 20.124 18.839 20.151 18.4796H16.8801C16.8591 18.8373 16.8477 19.1996 16.8477 19.5665C16.8477 26.2712 20.4285 31.523 24.9998 31.523C29.5711 31.523 33.152 26.2712 33.152 19.5665C33.1521 19.1996 33.1407 18.8373 33.1198 18.4796Z" fill="#D80027"/>
<path d="M10.3259 11.9575H13.5867V14.1314H16.8476V11.9575H20.1084V14.1314H23.3692V11.9575H26.6301V14.1314H29.8909V11.9575H33.1518V14.1314H36.4126V11.9575H39.6734V14.1314H47.5188C43.4754 5.76904 34.9112 0.000976562 24.9998 0.000976562C15.0884 0.000976562 6.52422 5.76904 2.48047 14.1314H10.3259V11.9575Z" fill="#6DA544"/>
<path d="M39.6737 35.8701V38.044H36.4129V35.8701H33.1521V38.044H29.8912V35.8701H26.6304V38.044H23.3695V35.8701H20.1087V38.044H16.8479V35.8701H13.5867V38.044H10.3259V35.8701H2.48047C6.52422 44.2325 15.0883 50.0006 24.9998 50.0006C34.9113 50.0006 43.4754 44.2325 47.5191 35.8701H39.6737Z" fill="#D80027"/>
</g>
<defs>
<clipPath id="clip0_205_1333">
<rect width="50" height="50" fill="white" transform="translate(0 0.000976562)"/>
</clipPath>
</defs>
</svg>
