<svg width="50" height="50" viewBox="0 0 50 50" fill="none" xmlns="http://www.w3.org/2000/svg">
<g clip-path="url(#clip0_205_481)">
<path d="M25 50C38.8071 50 50 38.8071 50 25C50 11.1929 38.8071 0 25 0C11.1929 0 0 11.1929 0 25C0 38.8071 11.1929 50 25 50Z" fill="#F0F0F0"/>
<path d="M25 0C15.0885 0 6.52446 5.76807 2.48071 14.1305H47.5193C43.4756 5.76807 34.9115 0 25 0Z" fill="#338AF3"/>
<path d="M25 50.0001C34.9115 50.0001 43.4756 44.232 47.5194 35.8696H2.48071C6.52446 44.232 15.0885 50.0001 25 50.0001Z" fill="#338AF3"/>
<path d="M32.4722 25.0002L29.4189 26.4364L31.0448 29.3934L27.7294 28.7591L27.3093 32.1083L25 29.645L22.6906 32.1083L22.2706 28.7591L18.9552 29.3933L20.581 26.4363L17.5278 25.0002L20.5811 23.564L18.9552 20.6071L22.2705 21.2413L22.6907 17.8921L25 20.3554L27.3094 17.8921L27.7294 21.2413L31.0449 20.6071L29.419 23.5641L32.4722 25.0002Z" fill="#FFDA44"/>
</g>
<defs>
<clipPath id="clip0_205_481">
<rect width="50" height="50" fill="white"/>
</clipPath>
</defs>
</svg>
