<svg width="50" height="50" viewBox="0 0 50 50" fill="none" xmlns="http://www.w3.org/2000/svg">
<g clip-path="url(#clip0_205_942)">
<path d="M50 25.0014C50 21.9434 49.4499 19.014 48.445 16.3058L25 15.2188L1.55498 16.3057C0.550098 19.014 0 21.9434 0 25.0014C0 28.0594 0.550098 30.9888 1.55498 33.697L25 34.784L48.445 33.6971C49.4499 30.9888 50 28.0594 50 25.0014Z" fill="#F0F0F0"/>
<path d="M25.0002 50.0007C35.7493 50.0007 44.9129 43.2163 48.4452 33.6963H1.55518C5.0875 43.2163 14.2511 50.0007 25.0002 50.0007Z" fill="#0052B4"/>
<path d="M1.55518 16.3054H48.4453C44.9129 6.78535 35.7493 0.000976562 25.0002 0.000976562C14.2511 0.000976562 5.0875 6.78535 1.55518 16.3054Z" fill="#D80027"/>
<path d="M31.5217 17.392H27.1738L27.8985 11.9571L30.797 9.7832L33.6955 11.9571V16.305L31.5217 17.392Z" fill="#338AF3"/>
<path d="M18.478 17.392H22.8259L22.1012 11.9571L19.2026 9.7832L16.3042 11.9571V16.305L18.478 17.392Z" fill="#338AF3"/>
<path d="M27.8988 17.392H22.1016V11.9571L25.0002 9.7832L27.8988 11.9571V17.392Z" fill="#0052B4"/>
<path d="M16.3042 16.3057V28.2621C16.3042 31.1091 17.6794 33.6409 19.8005 35.2281L21.3223 34.8474L23.2426 36.7792C23.8104 36.8962 24.398 36.9578 24.9999 36.9578C25.5985 36.9578 26.1832 36.897 26.748 36.7812L28.9401 34.956L30.1991 35.2246C32.3193 33.6375 33.6955 31.1083 33.6955 28.2621V16.3057H16.3042Z" fill="#F0F0F0"/>
<path d="M16.3042 16.3057H19.7824V19.7839H16.3042V16.3057Z" fill="#D80027"/>
<path d="M23.2607 16.3057H26.739V19.7839H23.2607V16.3057Z" fill="#D80027"/>
<path d="M30.2173 16.3057H33.6955V19.7839H30.2173V16.3057Z" fill="#D80027"/>
<path d="M19.7822 19.7842H23.2604V23.2624H19.7822V19.7842Z" fill="#D80027"/>
<path d="M26.7388 19.7842H30.217V23.2624H26.7388V19.7842Z" fill="#D80027"/>
<path d="M16.3042 23.2607H19.7824V26.739H16.3042V23.2607Z" fill="#D80027"/>
<path d="M19.7822 26.7393H23.2604V30.2175H19.7822V26.7393Z" fill="#D80027"/>
<path d="M23.2607 23.2607H26.739V26.739H23.2607V23.2607Z" fill="#D80027"/>
<path d="M30.2173 23.2607H33.6955V26.739H30.2173V23.2607Z" fill="#D80027"/>
<path d="M26.7388 26.7393H30.217V30.2175H26.7388V26.7393Z" fill="#D80027"/>
<path d="M23.2607 30.2178H26.739V33.696H23.2607V30.2178Z" fill="#D80027"/>
<path d="M19.7826 30.2178H16.5288C16.8272 31.5107 17.414 32.6938 18.2185 33.696H19.7826V30.2178Z" fill="#D80027"/>
<path d="M30.2173 33.696H31.7813C32.586 32.6938 33.1726 31.5106 33.471 30.2178H30.2173V33.696Z" fill="#D80027"/>
<path d="M19.7822 33.6963V35.214C20.7938 35.9752 21.9761 36.521 23.2604 36.7829V33.6963H19.7822Z" fill="#D80027"/>
<path d="M26.7388 33.6963V36.7829C28.0232 36.5212 29.2054 35.9752 30.217 35.214V33.6963H26.7388Z" fill="#D80027"/>
</g>
<defs>
<clipPath id="clip0_205_942">
<rect width="50" height="50" fill="white" transform="translate(0 0.000976562)"/>
</clipPath>
</defs>
</svg>
