<svg width="50" height="50" viewBox="0 0 50 50" fill="none" xmlns="http://www.w3.org/2000/svg">
<g clip-path="url(#clip0_205_2110)">
<path d="M25 49.999C38.8071 49.999 50 38.8061 50 24.999C50 11.1919 38.8071 -0.000976562 25 -0.000976562C11.1929 -0.000976562 0 11.1919 0 24.999C0 38.8061 11.1929 49.999 25 49.999Z" fill="#F0F0F0"/>
<path d="M33.6959 24.9993C33.6959 27.1732 29.8027 32.608 25.0003 32.608C20.1979 32.608 16.3047 27.1732 16.3047 24.9993C16.3047 20.1968 20.1979 16.3037 25.0003 16.3037C29.8027 16.3037 33.6959 20.1968 33.6959 24.9993Z" fill="#D80027"/>
<path d="M33.6959 24.999C33.6959 29.8016 29.8027 33.6946 25.0003 33.6946C20.1979 33.6946 16.3047 29.8016 16.3047 24.999" fill="#0052B4"/>
<path d="M34.2158 32.6855L36.5212 30.3801L38.0582 31.9171L35.7528 34.2225L34.2158 32.6855Z" fill="black"/>
<path d="M30.373 36.5283L32.6785 34.2229L34.2154 35.7599L31.91 38.0653L30.373 36.5283Z" fill="black"/>
<path d="M38.8271 37.2959L41.1326 34.9905L42.6695 36.5274L40.3641 38.8329L38.8271 37.2959Z" fill="black"/>
<path d="M34.9844 41.1387L37.2898 38.8333L38.8268 40.3702L36.5213 42.6756L34.9844 41.1387Z" fill="black"/>
<path d="M36.5215 34.9912L38.8269 32.6858L40.3639 34.2228L38.0584 36.5282L36.5215 34.9912Z" fill="black"/>
<path d="M32.6797 38.833L34.9851 36.5276L36.5221 38.0646L34.2167 40.37L32.6797 38.833Z" fill="black"/>
<path d="M38.8379 17.3174L32.6901 11.1696L34.2271 9.63262L40.3749 15.7804L38.8379 17.3174Z" fill="black"/>
<path d="M32.6885 15.7803L30.3831 13.4749L31.92 11.938L34.2254 14.2434L32.6885 15.7803Z" fill="black"/>
<path d="M36.5312 19.624L34.2258 17.3186L35.7627 15.7817L38.0681 18.0871L36.5312 19.624Z" fill="black"/>
<path d="M37.2988 11.1689L34.9934 8.86353L36.5304 7.32657L38.8358 9.63198L37.2988 11.1689Z" fill="black"/>
<path d="M41.1436 15.0127L38.8381 12.7073L40.3751 11.1703L42.6805 13.4757L41.1436 15.0127Z" fill="black"/>
<path d="M8.8623 34.9863L15.0101 41.1341L13.4731 42.6711L7.32534 36.5233L8.8623 34.9863Z" fill="black"/>
<path d="M15.0098 36.5225L17.3152 38.8279L15.7783 40.3648L13.4729 38.0594L15.0098 36.5225Z" fill="black"/>
<path d="M11.168 32.6807L13.4734 34.9861L11.9364 36.523L9.631 34.2176L11.168 32.6807Z" fill="black"/>
<path d="M13.4736 30.375L19.6214 36.5228L18.0845 38.0598L11.9367 31.912L13.4736 30.375Z" fill="black"/>
<path d="M15.0098 8.8584L8.86197 15.0062L7.32501 13.4692L13.4728 7.32143L15.0098 8.8584Z" fill="black"/>
<path d="M17.3154 11.1641L11.1676 17.3119L9.63067 15.7749L15.7785 9.6271L17.3154 11.1641Z" fill="black"/>
<path d="M19.623 13.4707L13.4753 19.6185L11.9384 18.0816L18.0861 11.9338L19.623 13.4707Z" fill="black"/>
</g>
<defs>
<clipPath id="clip0_205_2110">
<rect width="50" height="50" fill="white" transform="translate(0 -0.000976562)"/>
</clipPath>
</defs>
</svg>
