<svg width="50" height="50" viewBox="0 0 50 50" fill="none" xmlns="http://www.w3.org/2000/svg">
<g clip-path="url(#clip0_205_1189)">
<path d="M0 25.0004C0 28.0584 0.550098 30.9877 1.55498 33.696L25 34.783L48.445 33.6961C49.45 30.9877 50 28.0584 50 25.0004C50 21.9424 49.45 19.0131 48.445 16.3048L25 15.2178L1.55498 16.3047C0.550098 19.0131 0 21.9424 0 25.0004H0Z" fill="#FFDA44"/>
<path d="M25 0C14.2508 0 5.08726 6.78437 1.55493 16.3044H48.4451C44.9126 6.78437 35.7491 0 25 0Z" fill="#D80027"/>
<path d="M48.445 33.6953H1.55493C5.08726 43.2152 14.2508 49.9997 25 49.9997C35.7491 49.9997 44.9126 43.2152 48.445 33.6953Z" fill="#496E2D"/>
<path d="M24.9999 16.3047L27.1581 22.9473H34.1433L28.4926 27.053L30.6508 33.6959L24.9999 29.5904L19.349 33.6959L21.5076 27.053L15.8569 22.9473H22.8417L24.9999 16.3047Z" fill="black"/>
</g>
<defs>
<clipPath id="clip0_205_1189">
<rect width="50" height="50" fill="white"/>
</clipPath>
</defs>
</svg>
