<svg width="50" height="51" viewBox="0 0 50 51" fill="none" xmlns="http://www.w3.org/2000/svg">
<g clip-path="url(#clip0_205_2416)">
<path d="M25 50.582C38.8071 50.582 50 39.3892 50 25.582C50 11.7749 38.8071 0.582031 25 0.582031C11.1929 0.582031 0 11.7749 0 25.582C0 39.3892 11.1929 50.582 25 50.582Z" fill="#F0F0F0"/>
<path d="M25 19.0608H49.1388C48.5119 16.7353 47.5592 14.5438 46.3307 12.5391H25V19.0608Z" fill="#338AF3"/>
<path d="M9.43789 45.1468H40.5622C42.8438 43.3296 44.8004 41.1224 46.3307 38.625H3.66943C5.1998 41.1223 7.15645 43.3296 9.43789 45.1468Z" fill="#338AF3"/>
<path d="M25 0.582031V6.0168H40.5622C36.2917 2.61563 30.8837 0.582031 25 0.582031Z" fill="#338AF3"/>
<path d="M25 19.0608H49.1388C48.5119 16.7353 47.5592 14.5438 46.3307 12.5391H25V19.0608Z" fill="#338AF3"/>
<path d="M0 25.582C0 27.8386 0.300781 30.0243 0.86123 32.1038H49.1389C49.6992 30.0243 50 27.8386 50 25.582H0Z" fill="#338AF3"/>
<path d="M21.7393 15.2135L18.6859 16.6497L20.3118 19.6067L16.9964 18.9726L16.5763 22.3217L14.2671 19.8584L11.9577 22.3217L11.5377 18.9726L8.22227 19.6065L9.84805 16.6496L6.79492 15.2135L9.84814 13.7774L8.22227 10.8204L11.5376 11.4546L11.9578 8.10547L14.2671 10.5687L16.5764 8.10547L16.9964 11.4546L20.3119 10.8204L18.686 13.7775L21.7393 15.2135Z" fill="#FFDA44"/>
</g>
<defs>
<clipPath id="clip0_205_2416">
<rect width="50" height="50" fill="white" transform="translate(0 0.582031)"/>
</clipPath>
</defs>
</svg>
