<svg width="50" height="50" viewBox="0 0 50 50" fill="none" xmlns="http://www.w3.org/2000/svg">
<g clip-path="url(#clip0_205_2011)">
<path d="M25 50C38.8071 50 50 38.8071 50 25C50 11.1929 38.8071 0 25 0C11.1929 0 0 11.1929 0 25C0 38.8071 11.1929 50 25 50Z" fill="#F0F0F0"/>
<path d="M25 0C11.193 0 0 11.193 0 25C0 28.058 0.550098 30.9874 1.55498 33.6956H48.4451C49.45 30.9874 50 28.058 50 25C50 11.193 38.807 0 25 0Z" fill="#0052B4"/>
<path d="M24.9997 0C14.2506 0 5.08701 6.78437 1.55469 16.3044H48.4448C44.9124 6.78437 35.7488 0 24.9997 0Z" fill="#D80027"/>
<path d="M6.46484 14.1309V26.6021C6.46484 33.6963 15.7325 35.87 15.7325 35.87C15.7325 35.87 25.0001 33.6963 25.0001 26.6021V14.1309H6.46484Z" fill="#D80027"/>
<path d="M10.2969 16.304H21.1665V11.9562L18.9926 13.0431L15.7317 9.78223L12.4708 13.0431L10.2969 11.9562V16.304Z" fill="#FFDA44"/>
<path d="M22.8258 28.3377L15.7605 21.2725L8.69531 28.3377L11.0011 30.6435L15.7605 25.884L20.52 30.6435L22.8258 28.3377Z" fill="#FFDA44"/>
<path d="M22.8258 21.7392H19.5293C19.7146 21.4192 19.8225 21.0487 19.8225 20.6524C19.8225 19.4517 18.8491 18.4785 17.6485 18.4785C16.8189 18.4785 16.0985 18.9432 15.732 19.6263C15.3655 18.9433 14.6451 18.4785 13.8155 18.4785C12.6149 18.4785 11.6416 19.4517 11.6416 20.6524C11.6416 21.0487 11.7494 21.4193 11.9348 21.7392H8.69531C8.69531 22.9398 9.74111 23.9131 10.9416 23.9131H10.8692C10.8692 25.1138 11.8425 26.087 13.0432 26.087C13.0432 27.1501 13.8066 28.0333 14.8149 28.2224L13.1021 32.0897C13.9229 32.4234 14.82 32.6088 15.7606 32.6088C16.7013 32.6088 17.5983 32.4234 18.4192 32.0897L16.7063 28.2224C17.7146 28.0335 18.4781 27.1502 18.4781 26.087C19.6788 26.087 20.6521 25.1138 20.6521 23.9131H20.5797C21.7801 23.9131 22.8258 22.9397 22.8258 21.7392Z" fill="#F0F0F0"/>
</g>
<defs>
<clipPath id="clip0_205_2011">
<rect width="50" height="50" fill="white"/>
</clipPath>
</defs>
</svg>
